<?xml version="1.0" encoding="UTF-8" standalone="no"?>
<svg viewBox="0 0 170 170" xmlns="http://www.w3.org/2000/svg">
<g transform="translate(0,-882.36218)">
<path d="m86.16296,894.08671 .3.3h1.5l.6.3h.3l.6.3 .6.3 .6.3 .6.3 .3.6 .3.3 .6.3 .3.6 .3.3 .6.6 36.675,63.6 36.3,63.22499 .3.6 .6,1.2 .3.6v1.5l.3.6-.3.9v1.2l-.3.6-.3.6v.6l-.3.3-.3.3-.3.6-.3.3-.3.3-.3.3-.3.6-.3.3-.6.3-.6.3-.6.3-.3.3-.6.3h-.6l-.6.3h-1.2l-.6.3h-73.275l-72.975-.3h-2.1l-.6-.3h-.6l-.6-.3-.3-.3-.6-.3-.6-.3-.6-.3-.6-.6-.3-.3-.3-.6-.3-.3-.3-.6-.3-.3-.3-.3v-.6l-.3-.3v-.6l-.3-.3v-1.2l-.3-.9 .3-.6v-1.5l.6-1.2v-.6l.6-.6 36.3-63.22499 36.675-63.3 .3-.6 .6-.6 .3-.6 .3-.3 .6-.6 .3-.3 .6-.3 .3-.3 .9-.3 .6-.3h.6l.6-.3h1.5l.6-.3" fill="#f9d100" fill-rule="evenodd"/>
<path d="m86.76296,898.58671 .3.3 .6.3 .6.3h.3l.3.6 .3.3 .6.6 72.975,126.52499 .3.3 .3.3v.6l.3.3v1.2l-.3.9-.3.6-.3.6-.6.6-.6.6-.6.3-.6.3-.9.3h-147.44999l-.3-.3h-.6l-.3-.3h-.3l-.3-.3-.6-.3-.6-.6-.3-.9-.3-.6-.3-.9v-.6l.3-.9 .3-.6v-.6h.3l72.975-126.52499v-.3l.3-.3 .3-.3 .6-.6 .3-.3h.3l.3-.3h.9l.3-.3h1.5zm61.575,125.02499h-124.94999l62.475-108.22499 62.475,108.22499" fill="#1f1a17" fill-rule="evenodd"/>
<path d="m75.66296,945.68671 .3-.6v-.9l.3-.6v-.9l.3-.3v-.3l.9-1.5 .6-1.2 1.2-.9 .9-.9 1.5-.6 1.2-.6 1.5-.3h1.2l1.5.3 1.2.3 1.5.3 .9.9 1.2.6 .9.9 .9,1.2 .6.9v.6l.3.3 .3.6v.6l.3.6v1.5l-3.6,39.525-.3,1.2-.3.9-.9.9-.6.9-.9.6-.9.3-.9.3h-2.1l-1.2-.3-.9-.3-1.8-1.2-.6-.9-.6-1.2-.3-1.2-3.6-39.525zm9.9,50.625 2.1.3 1.8.6 1.5.9 1.5,1.2 1.2,1.49999 .9,1.5 .6,1.8 .3,2.1-.3,1.8-.6,1.8-.9,1.8-1.2,1.5-1.5,1.2-1.5.9-1.8.6h-3.9l-1.8-.6-1.8-.9-1.5-1.2-1.2-1.5-.9-1.8-.6-1.8v-3.9l.6-1.8 .9-1.5 1.2-1.49999 1.5-1.2 1.8-.9 1.8-.6 1.8-.3" fill="#1f1a17" fill-rule="evenodd"/>
</g>
</svg>
